<!DOCTYPE svg PUBLIC "-//W3C//DTD SVG 1.1//EN" "http://www.w3.org/Graphics/SVG/1.1/DTD/svg11.dtd">
<!-- Uploaded to: SVG Repo, www.svgrepo.com, Transformed by: SVG Repo Mixer Tools -->
<svg fill="#04252b" width="800px" height="800px" viewBox="0 0 256 256" id="Flat" xmlns="http://www.w3.org/2000/svg" stroke="#04252b" stroke-width="8.192">
<g id="SVGRepo_bgCarrier" stroke-width="0"/>
<g id="SVGRepo_tracerCarrier" stroke-linecap="round" stroke-linejoin="round"/>
<g id="SVGRepo_iconCarrier"> <path d="M128,28A100,100,0,1,0,228,128,100.1127,100.1127,0,0,0,128,28Zm0,192a92,92,0,1,1,92-92A92.10478,92.10478,0,0,1,128,220Zm24-108v64a4,4,0,0,1-8,0V148H100a4,4,0,0,1-3.77246-5.33105l23.998-68a4.00039,4.00039,0,0,1,7.54492,2.6621L105.65332,140H144V112a4,4,0,0,1,8,0Z"/> </g>
</svg>